<?xml version="1.0" standalone="no"?>
<!DOCTYPE svg PUBLIC "-//W3C//DTD SVG 20010904//EN"
 "http://www.w3.org/TR/2001/REC-SVG-20010904/DTD/svg10.dtd">
<svg version="1.0" xmlns="http://www.w3.org/2000/svg"
 width="512.000000pt" height="512.000000pt" viewBox="0 0 512.000000 512.000000"
 preserveAspectRatio="xMidYMid meet">
<g transform="translate(0.000000,512.000000) scale(0.100000,-0.100000)"
fill="#000000" stroke="none">
<path d="M1374 4733 c-90 -17 -149 -48 -220 -118 -57 -57 -128 -174 -137 -230
-2 -11 -7 -27 -10 -35 -49 -130 -55 -494 -11 -720 2 -14 6 -36 9 -50 3 -14 9
-48 15 -76 6 -28 13 -63 16 -79 3 -16 7 -32 9 -36 3 -4 -41 -21 -98 -39 -477
-151 -825 -400 -912 -655 -62 -182 4 -368 192 -545 87 -82 99 -91 197 -155
140 -91 296 -164 478 -226 68 -23 127 -45 131 -49 4 -4 1 -40 -8 -81 -18 -82
-20 -95 -29 -154 -3 -22 -8 -50 -10 -62 -25 -126 -28 -414 -5 -543 53 -292
177 -454 384 -500 51 -12 308 -14 385 -4 144 19 345 103 530 222 78 50 232
167 275 209 12 12 44 -3 70 -32 6 -7 33 -29 60 -51 28 -21 52 -42 55 -45 11
-12 192 -132 237 -156 229 -123 345 -155 568 -156 163 0 217 6 285 33 58 23
78 38 145 106 125 128 190 345 189 639 0 109 -12 293 -19 305 -2 3 -6 27 -9
54 -4 27 -14 79 -22 115 -27 119 -34 108 91 152 301 106 527 230 684 375 145
134 211 252 219 393 5 100 -11 160 -70 258 -40 67 -164 197 -233 243 -27 19
-52 37 -55 40 -9 12 -146 90 -158 90 -7 0 -12 5 -12 10 0 6 -4 10 -10 10 -5 0
-38 14 -72 31 -86 42 -215 91 -326 125 -81 25 -92 31 -88 49 18 74 56 304 62
375 16 171 8 420 -15 498 -5 18 -10 33 -10 35 1 7 -14 65 -21 82 -4 11 -14 36
-21 55 -25 68 -79 149 -131 195 -102 92 -189 115 -428 111 -192 -4 -277 -25
-464 -117 -91 -44 -86 -41 -216 -128 -92 -62 -252 -187 -258 -203 -7 -16 -25
-6 -110 63 -234 190 -505 334 -687 366 -114 19 -323 22 -411 6z m2269 -266
c34 -38 81 -136 96 -202 20 -87 23 -116 25 -260 3 -145 -9 -283 -39 -442 -14
-76 -21 -93 -35 -93 -10 0 -69 9 -132 19 -119 20 -187 29 -278 37 -63 6 -72
13 -159 139 -19 28 -38 52 -41 55 -3 3 -40 48 -81 100 -42 52 -92 113 -112
135 -19 22 -47 53 -61 70 l-26 30 33 28 c17 16 50 46 72 66 185 169 436 320
605 366 53 14 88 2 133 -48z m-2028 42 c85 -22 235 -92 323 -150 24 -16 45
-29 48 -29 3 0 10 -5 17 -10 7 -6 44 -34 82 -62 95 -71 218 -177 229 -198 6
-13 2 -24 -10 -37 -86 -90 -271 -315 -349 -426 -45 -63 -45 -63 -135 -72 -36
-4 -76 -8 -90 -10 -14 -2 -45 -7 -70 -10 -25 -3 -85 -13 -135 -21 -49 -7 -93
-14 -96 -14 -13 0 -48 181 -65 330 -10 84 -10 297 -1 377 19 158 82 286 163
328 34 18 37 18 89 4z m1057 -839 c23 -30 53 -67 66 -82 l24 -26 -196 -1
c-108 0 -196 2 -196 4 0 2 6 10 13 17 7 7 35 42 62 77 28 35 66 82 85 104 l35
39 33 -39 c18 -21 51 -63 74 -93z m186 -334 c35 -2 65 -6 67 -8 1 -2 38 -59
82 -128 95 -148 211 -348 300 -518 l64 -123 -84 -162 c-88 -170 -212 -383
-306 -527 -30 -47 -56 -86 -56 -87 -8 -16 -559 -19 -711 -4 -25 2 -267 401
-386 637 l-72 141 67 131 c37 71 83 158 102 192 19 34 35 63 35 65 0 11 217
353 241 379 4 4 47 10 96 13 48 2 89 6 90 7 4 4 403 -2 471 -8z m-1156 -117
c-16 -24 -52 -84 -80 -132 -34 -60 -53 -84 -58 -75 -9 14 -74 198 -74 209 0 6
28 15 75 25 115 23 160 29 163 23 2 -3 -10 -26 -26 -50z m1823 31 c61 -12 111
-23 112 -24 4 -3 -35 -122 -52 -161 -7 -16 -16 -40 -20 -53 -6 -20 -17 -5 -82
105 -41 70 -79 132 -84 138 -13 13 -11 25 4 20 6 -2 62 -13 122 -25z m-2369
-227 c18 -55 63 -171 100 -259 36 -87 71 -171 77 -185 9 -22 2 -44 -46 -155
-30 -71 -62 -147 -70 -169 -71 -195 -99 -270 -101 -273 -6 -6 -137 48 -236 97
-143 71 -264 154 -347 239 -188 191 -175 331 50 530 20 17 41 32 47 32 5 0 10
4 10 9 0 5 14 14 30 21 17 7 30 16 30 20 0 17 404 205 418 194 2 -1 19 -47 38
-101z m2939 66 c180 -69 390 -191 485 -281 100 -95 143 -171 141 -251 -3 -164
-220 -360 -564 -510 -154 -67 -140 -68 -166 10 -13 38 -27 77 -31 88 -5 11
-29 70 -53 130 -25 61 -61 146 -82 190 -20 44 -37 87 -37 95 -1 8 10 40 24 70
56 121 68 149 103 240 20 52 48 130 62 173 14 42 29 77 32 77 4 0 42 -14 86
-31z m-2463 -1077 c31 -53 69 -117 84 -141 l27 -43 -44 5 c-128 18 -209 39
-209 55 0 19 73 222 79 222 4 -1 32 -45 63 -98z m2098 -427 c6 -33 13 -73 15
-90 3 -16 7 -46 10 -65 20 -123 26 -326 14 -437 -16 -151 -67 -289 -130 -352
-42 -42 -74 -54 -119 -45 -19 4 -37 8 -40 8 -14 3 -131 53 -175 76 -94 48
-256 158 -340 231 -81 70 -150 133 -153 139 -1 3 30 44 70 91 40 47 89 105
108 129 19 25 37 47 40 50 3 3 48 62 99 133 84 115 95 127 124 128 18 0 41 2
52 5 11 2 41 5 67 6 27 2 48 5 48 8 0 3 12 5 26 5 14 -1 81 8 148 20 66 11
122 21 123 20 0 0 6 -27 13 -60z m-2132 24 c48 -6 101 -13 117 -14 139 -15
172 -18 188 -19 9 0 17 -3 17 -7 0 -14 253 -338 315 -404 32 -34 95 -106 95
-109 0 -10 -87 -88 -218 -196 -109 -91 -337 -214 -464 -251 -87 -26 -117 -20
-170 35 -33 34 -86 138 -94 183 -2 15 -7 34 -9 41 -16 44 -25 300 -15 422 2
24 31 220 36 244 3 11 7 32 10 46 11 58 11 58 60 49 24 -5 84 -14 132 -20z
m1150 -58 c11 -1 -71 -118 -130 -186 -9 -11 -24 -29 -32 -40 -15 -19 -16 -19
-54 25 -22 25 -67 80 -100 122 -61 77 -61 77 -34 80 22 2 307 2 350 -1z"/>
<path d="M2485 2999 c-147 -27 -268 -120 -333 -256 -138 -292 77 -633 400
-635 136 0 245 47 338 148 79 85 120 196 116 312 -4 87 -11 114 -48 190 -84
170 -289 274 -473 241z"/>
</g>
</svg>
